<svg width="729" height="805" viewBox="0 0 729 805" fill="none" xmlns="http://www.w3.org/2000/svg">
<g filter="url(#filter0_b_917_2)">
<path fill-rule="evenodd" clip-rule="evenodd" d="M0 0H729V805H0V0ZM63.4412 588V609H58.6412V592.62H52.3412V609H47.5412V588H63.4412ZM75.8729 593.58C77.8529 593.58 79.5429 594.35 80.9429 595.89C82.3429 597.41 83.0429 599.28 83.0429 601.5C83.0429 603.72 82.3429 605.6 80.9429 607.14C79.5429 608.66 77.8529 609.42 75.8729 609.42C73.9529 609.42 72.4629 608.81 71.4029 607.59V615H66.9029V594H71.4029V595.41C72.4629 594.19 73.9529 593.58 75.8729 593.58ZM72.3929 604.17C73.0729 604.83 73.9329 605.16 74.9729 605.16C76.0129 605.16 76.8629 604.83 77.5229 604.17C78.2029 603.51 78.5429 602.62 78.5429 601.5C78.5429 600.38 78.2029 599.49 77.5229 598.83C76.8629 598.17 76.0129 597.84 74.9729 597.84C73.9329 597.84 73.0729 598.17 72.3929 598.83C71.7329 599.49 71.4029 600.38 71.4029 601.5C71.4029 602.62 71.7329 603.51 72.3929 604.17ZM98.4343 607.14C96.8943 608.66 95.0143 609.42 92.7943 609.42C90.5743 609.42 88.6943 608.66 87.1543 607.14C85.6143 605.6 84.8443 603.72 84.8443 601.5C84.8443 599.28 85.6143 597.41 87.1543 595.89C88.6943 594.35 90.5743 593.58 92.7943 593.58C95.0143 593.58 96.8943 594.35 98.4343 595.89C99.9743 597.41 100.744 599.28 100.744 601.5C100.744 603.72 99.9743 605.6 98.4343 607.14ZM90.3343 604.05C90.9943 604.71 91.8143 605.04 92.7943 605.04C93.7743 605.04 94.5943 604.71 95.2543 604.05C95.9143 603.39 96.2443 602.54 96.2443 601.5C96.2443 600.46 95.9143 599.61 95.2543 598.95C94.5943 598.29 93.7743 597.96 92.7943 597.96C91.8143 597.96 90.9943 598.29 90.3343 598.95C89.6743 599.61 89.3443 600.46 89.3443 601.5C89.3443 602.54 89.6743 603.39 90.3343 604.05ZM111.547 594H116.047V609H111.547V604.5C110.467 604.82 109.367 604.98 108.247 604.98C106.467 604.98 105.017 604.52 103.897 603.6C102.797 602.66 102.247 601.31 102.247 599.55V594H106.747V598.95C106.747 600.17 107.547 600.78 109.147 600.78C110.067 600.78 110.867 600.62 111.547 600.3V594ZM128.794 594H133.594L128.464 608.55C126.864 613.07 124.014 615.22 119.914 615V610.8C120.934 610.8 121.714 610.65 122.254 610.35C122.794 610.05 123.234 609.51 123.574 608.73L117.694 594H122.494L125.974 603.21L128.794 594ZM146.443 601.32C147.783 602.04 148.453 603.17 148.453 604.71C148.453 605.99 148.003 607.03 147.103 607.83C146.223 608.61 144.973 609 143.353 609H135.253V594H142.753C144.373 594 145.623 594.4 146.503 595.2C147.403 595.98 147.853 597.01 147.853 598.29C147.853 599.61 147.383 600.62 146.443 601.32ZM142.273 597.6H139.453V599.7H142.273C143.153 599.7 143.593 599.36 143.593 598.68C143.593 597.96 143.153 597.6 142.273 597.6ZM142.753 605.28C143.633 605.28 144.073 604.91 144.073 604.17C144.073 603.47 143.633 603.12 142.753 603.12H139.453V605.28H142.753ZM157.892 609.42C155.612 609.42 153.712 608.66 152.192 607.14C150.692 605.62 149.942 603.74 149.942 601.5C149.942 599.26 150.692 597.38 152.192 595.86C153.712 594.34 155.612 593.58 157.892 593.58C159.332 593.58 160.652 593.93 161.852 594.63C163.072 595.33 164.012 596.26 164.672 597.42L160.742 599.7C160.202 598.58 159.232 598.02 157.832 598.02C156.852 598.02 156.042 598.35 155.402 599.01C154.762 599.65 154.442 600.48 154.442 601.5C154.442 602.52 154.762 603.36 155.402 604.02C156.042 604.66 156.852 604.98 157.832 604.98C159.252 604.98 160.222 604.42 160.742 603.3L164.672 605.55C164.012 606.73 163.082 607.67 161.882 608.37C160.682 609.07 159.352 609.42 157.892 609.42ZM178.633 594V598.32H174.163V609H169.663V598.32H165.133V594H178.633ZM191.765 601.32C193.105 602.04 193.775 603.17 193.775 604.71C193.775 605.99 193.325 607.03 192.425 607.83C191.545 608.61 190.295 609 188.675 609H180.575V594H188.075C189.695 594 190.945 594.4 191.825 595.2C192.725 595.98 193.175 597.01 193.175 598.29C193.175 599.61 192.705 600.62 191.765 601.32ZM187.595 597.6H184.775V599.7H187.595C188.475 599.7 188.915 599.36 188.915 598.68C188.915 597.96 188.475 597.6 187.595 597.6ZM188.075 605.28C188.955 605.28 189.395 604.91 189.395 604.17C189.395 603.47 188.955 603.12 188.075 603.12H184.775V605.28H188.075ZM204.878 594H209.678L204.548 608.55C202.948 613.07 200.098 615.22 195.998 615V610.8C197.018 610.8 197.798 610.65 198.338 610.35C198.878 610.05 199.318 609.51 199.658 608.73L193.778 594H198.578L202.058 603.21L204.878 594ZM213.887 592.23V588.33H222.887V592.23H213.887ZM222.137 594H225.437V609H221.057V601.5L214.637 609H211.337V594H215.717V601.5L222.137 594ZM240.889 594V598.32H236.419V609H231.919V598.32H227.389V594H240.889ZM246.265 603.3C246.785 604.7 247.985 605.4 249.865 605.4C251.085 605.4 252.045 605.02 252.745 604.26L256.345 606.33C254.865 608.39 252.685 609.42 249.805 609.42C247.285 609.42 245.265 608.67 243.745 607.17C242.245 605.67 241.495 603.78 241.495 601.5C241.495 599.24 242.235 597.36 243.715 595.86C245.215 594.34 247.135 593.58 249.475 593.58C251.655 593.58 253.465 594.34 254.905 595.86C256.365 597.36 257.095 599.24 257.095 601.5C257.095 602.14 257.035 602.74 256.915 603.3H246.265ZM246.175 599.94H252.625C252.185 598.36 251.125 597.57 249.445 597.57C247.705 597.57 246.615 598.36 246.175 599.94ZM277.947 594H281.247V609H276.867V601.5L270.447 609H267.147V594H271.527V601.5L277.947 594ZM291.749 609.42C289.469 609.42 287.569 608.66 286.049 607.14C284.549 605.62 283.799 603.74 283.799 601.5C283.799 599.26 284.549 597.38 286.049 595.86C287.569 594.34 289.469 593.58 291.749 593.58C293.189 593.58 294.509 593.93 295.709 594.63C296.929 595.33 297.869 596.26 298.529 597.42L294.599 599.7C294.059 598.58 293.089 598.02 291.689 598.02C290.709 598.02 289.899 598.35 289.259 599.01C288.619 599.65 288.299 600.48 288.299 601.5C288.299 602.52 288.619 603.36 289.259 604.02C289.899 604.66 290.709 604.98 291.689 604.98C293.109 604.98 294.079 604.42 294.599 603.3L298.529 605.55C297.869 606.73 296.939 607.67 295.739 608.37C294.539 609.07 293.209 609.42 291.749 609.42ZM314.887 609H309.787L304.987 602.37V609H300.487V594H304.987V600.57L309.487 594H314.737L309.277 601.5L314.887 609ZM325.992 594H330.792L325.662 608.55C324.062 613.07 321.212 615.22 317.112 615V610.8C318.132 610.8 318.912 610.65 319.452 610.35C319.992 610.05 320.432 609.51 320.772 608.73L314.892 594H319.692L323.172 603.21L325.992 594ZM339.064 609.42C336.784 609.42 334.884 608.66 333.364 607.14C331.864 605.62 331.114 603.74 331.114 601.5C331.114 599.26 331.864 597.38 333.364 595.86C334.884 594.34 336.784 593.58 339.064 593.58C340.504 593.58 341.824 593.93 343.024 594.63C344.244 595.33 345.184 596.26 345.844 597.42L341.914 599.7C341.374 598.58 340.404 598.02 339.004 598.02C338.024 598.02 337.214 598.35 336.574 599.01C335.934 599.65 335.614 600.48 335.614 601.5C335.614 602.52 335.934 603.36 336.574 604.02C337.214 604.66 338.024 604.98 339.004 604.98C340.424 604.98 341.394 604.42 341.914 603.3L345.844 605.55C345.184 606.73 344.254 607.67 343.054 608.37C341.854 609.07 340.524 609.42 339.064 609.42ZM354.562 609.42C352.282 609.42 350.382 608.66 348.862 607.14C347.362 605.62 346.612 603.74 346.612 601.5C346.612 599.26 347.362 597.38 348.862 595.86C350.382 594.34 352.282 593.58 354.562 593.58C356.002 593.58 357.322 593.93 358.522 594.63C359.742 595.33 360.682 596.26 361.342 597.42L357.412 599.7C356.872 598.58 355.902 598.02 354.502 598.02C353.522 598.02 352.712 598.35 352.072 599.01C351.432 599.65 351.112 600.48 351.112 601.5C351.112 602.52 351.432 603.36 352.072 604.02C352.712 604.66 353.522 604.98 354.502 604.98C355.922 604.98 356.892 604.42 357.412 603.3L361.342 605.55C360.682 606.73 359.752 607.67 358.552 608.37C357.352 609.07 356.022 609.42 354.562 609.42ZM375.303 594V598.32H370.833V609H366.333V598.32H361.803V594H375.303ZM388.435 601.32C389.775 602.04 390.445 603.17 390.445 604.71C390.445 605.99 389.995 607.03 389.095 607.83C388.215 608.61 386.965 609 385.345 609H377.245V594H384.745C386.365 594 387.615 594.4 388.495 595.2C389.395 595.98 389.845 597.01 389.845 598.29C389.845 599.61 389.375 600.62 388.435 601.32ZM384.265 597.6H381.445V599.7H384.265C385.145 599.7 385.585 599.36 385.585 598.68C385.585 597.96 385.145 597.6 384.265 597.6ZM384.745 605.28C385.625 605.28 386.065 604.91 386.065 604.17C386.065 603.47 385.625 603.12 384.745 603.12H381.445V605.28H384.745ZM405.524 607.14C403.984 608.66 402.104 609.42 399.884 609.42C397.664 609.42 395.784 608.66 394.244 607.14C392.704 605.6 391.934 603.72 391.934 601.5C391.934 599.28 392.704 597.41 394.244 595.89C395.784 594.35 397.664 593.58 399.884 593.58C402.104 593.58 403.984 594.35 405.524 595.89C407.064 597.41 407.834 599.28 407.834 601.5C407.834 603.72 407.064 605.6 405.524 607.14ZM397.424 604.05C398.084 604.71 398.904 605.04 399.884 605.04C400.864 605.04 401.684 604.71 402.344 604.05C403.004 603.39 403.334 602.54 403.334 601.5C403.334 600.46 403.004 599.61 402.344 598.95C401.684 598.29 400.864 597.96 399.884 597.96C398.904 597.96 398.084 598.29 397.424 598.95C396.764 599.61 396.434 600.46 396.434 601.5C396.434 602.54 396.764 603.39 397.424 604.05ZM426.849 593.58C428.829 593.58 430.52 594.35 431.919 595.89C433.319 597.41 434.02 599.28 434.02 601.5C434.02 603.72 433.319 605.6 431.919 607.14C430.52 608.66 428.829 609.42 426.849 609.42C424.93 609.42 423.439 608.81 422.379 607.59V615H417.879V594H422.379V595.41C423.439 594.19 424.93 593.58 426.849 593.58ZM423.37 604.17C424.049 604.83 424.909 605.16 425.949 605.16C426.99 605.16 427.839 604.83 428.499 604.17C429.18 603.51 429.52 602.62 429.52 601.5C429.52 600.38 429.18 599.49 428.499 598.83C427.839 598.17 426.99 597.84 425.949 597.84C424.909 597.84 424.049 598.17 423.37 598.83C422.71 599.49 422.379 600.38 422.379 601.5C422.379 602.62 422.71 603.51 423.37 604.17ZM445.435 594H450.235L445.105 608.55C443.505 613.07 440.655 615.22 436.555 615V610.8C437.575 610.8 438.355 610.65 438.895 610.35C439.435 610.05 439.875 609.51 440.215 608.73L434.335 594H439.135L442.615 603.21L445.435 594ZM458.507 609.42C456.227 609.42 454.327 608.66 452.807 607.14C451.307 605.62 450.557 603.74 450.557 601.5C450.557 599.26 451.307 597.38 452.807 595.86C454.327 594.34 456.227 593.58 458.507 593.58C459.947 593.58 461.267 593.93 462.467 594.63C463.687 595.33 464.627 596.26 465.287 597.42L461.357 599.7C460.817 598.58 459.847 598.02 458.447 598.02C457.467 598.02 456.657 598.35 456.017 599.01C455.377 599.65 455.057 600.48 455.057 601.5C455.057 602.52 455.377 603.36 456.017 604.02C456.657 604.66 457.467 604.98 458.447 604.98C459.867 604.98 460.837 604.42 461.357 603.3L465.287 605.55C464.627 606.73 463.697 607.67 462.497 608.37C461.297 609.07 459.967 609.42 458.507 609.42ZM474.005 609.42C471.725 609.42 469.825 608.66 468.305 607.14C466.805 605.62 466.055 603.74 466.055 601.5C466.055 599.26 466.805 597.38 468.305 595.86C469.825 594.34 471.725 593.58 474.005 593.58C475.445 593.58 476.765 593.93 477.965 594.63C479.185 595.33 480.125 596.26 480.785 597.42L476.855 599.7C476.315 598.58 475.345 598.02 473.945 598.02C472.965 598.02 472.155 598.35 471.515 599.01C470.875 599.65 470.555 600.48 470.555 601.5C470.555 602.52 470.875 603.36 471.515 604.02C472.155 604.66 472.965 604.98 473.945 604.98C475.365 604.98 476.335 604.42 476.855 603.3L480.785 605.55C480.125 606.73 479.195 607.67 477.995 608.37C476.795 609.07 475.465 609.42 474.005 609.42ZM497.143 609H492.043L487.243 602.37V609H482.743V594H487.243V600.57L491.743 594H496.993L491.533 601.5L497.143 609ZM510.729 607.14C509.189 608.66 507.309 609.42 505.089 609.42C502.869 609.42 500.989 608.66 499.449 607.14C497.909 605.6 497.139 603.72 497.139 601.5C497.139 599.28 497.909 597.41 499.449 595.89C500.989 594.35 502.869 593.58 505.089 593.58C507.309 593.58 509.189 594.35 510.729 595.89C512.269 597.41 513.039 599.28 513.039 601.5C513.039 603.72 512.269 605.6 510.729 607.14ZM502.629 604.05C503.289 604.71 504.109 605.04 505.089 605.04C506.069 605.04 506.889 604.71 507.549 604.05C508.209 603.39 508.539 602.54 508.539 601.5C508.539 600.46 508.209 599.61 507.549 598.95C506.889 598.29 506.069 597.96 505.089 597.96C504.109 597.96 503.289 598.29 502.629 598.95C501.969 599.61 501.639 600.46 501.639 601.5C501.639 602.54 501.969 603.39 502.629 604.05ZM526.085 594V598.32H520.085V609H515.585V594H526.085ZM540.29 607.14C538.75 608.66 536.87 609.42 534.65 609.42C532.43 609.42 530.55 608.66 529.01 607.14C527.47 605.6 526.7 603.72 526.7 601.5C526.7 599.28 527.47 597.41 529.01 595.89C530.55 594.35 532.43 593.58 534.65 593.58C536.87 593.58 538.75 594.35 540.29 595.89C541.83 597.41 542.6 599.28 542.6 601.5C542.6 603.72 541.83 605.6 540.29 607.14ZM532.19 604.05C532.85 604.71 533.67 605.04 534.65 605.04C535.63 605.04 536.45 604.71 537.11 604.05C537.77 603.39 538.1 602.54 538.1 601.5C538.1 600.46 537.77 599.61 537.11 598.95C536.45 598.29 535.63 597.96 534.65 597.96C533.67 597.96 532.85 598.29 532.19 598.95C531.53 599.61 531.2 600.46 531.2 601.5C531.2 602.54 531.53 603.39 532.19 604.05ZM61.4912 631V646H56.9912V635.2H51.8912V646H47.3912V631H61.4912ZM75.6836 631H80.1836V646H75.6836V644.59C74.6236 645.81 73.1336 646.42 71.2136 646.42C69.2336 646.42 67.5436 645.66 66.1436 644.14C64.7436 642.6 64.0436 640.72 64.0436 638.5C64.0436 636.28 64.7436 634.41 66.1436 632.89C67.5436 631.35 69.2336 630.58 71.2136 630.58C73.1336 630.58 74.6236 631.19 75.6836 632.41V631ZM69.5336 641.17C70.1936 641.83 71.0536 642.16 72.1136 642.16C73.1736 642.16 74.0336 641.83 74.6936 641.17C75.3536 640.51 75.6836 639.62 75.6836 638.5C75.6836 637.38 75.3536 636.49 74.6936 635.83C74.0336 635.17 73.1736 634.84 72.1136 634.84C71.0536 634.84 70.1936 635.17 69.5336 635.83C68.8736 636.49 68.5436 637.38 68.5436 638.5C68.5436 639.62 68.8736 640.51 69.5336 641.17ZM92.455 630.58C94.435 630.58 96.125 631.35 97.525 632.89C98.925 634.41 99.625 636.28 99.625 638.5C99.625 640.72 98.925 642.6 97.525 644.14C96.125 645.66 94.435 646.42 92.455 646.42C90.535 646.42 89.045 645.81 87.985 644.59V652H83.485V631H87.985V632.41C89.045 631.19 90.535 630.58 92.455 630.58ZM88.975 641.17C89.655 641.83 90.515 642.16 91.555 642.16C92.595 642.16 93.445 641.83 94.105 641.17C94.785 640.51 95.125 639.62 95.125 638.5C95.125 637.38 94.785 636.49 94.105 635.83C93.445 635.17 92.595 634.84 91.555 634.84C90.515 634.84 89.655 635.17 88.975 635.83C88.315 636.49 87.985 637.38 87.985 638.5C87.985 639.62 88.315 640.51 88.975 641.17ZM113.066 631H117.566V646H113.066V644.59C112.006 645.81 110.516 646.42 108.596 646.42C106.616 646.42 104.926 645.66 103.526 644.14C102.126 642.6 101.426 640.72 101.426 638.5C101.426 636.28 102.126 634.41 103.526 632.89C104.926 631.35 106.616 630.58 108.596 630.58C110.516 630.58 112.006 631.19 113.066 632.41V631ZM106.916 641.17C107.576 641.83 108.436 642.16 109.496 642.16C110.556 642.16 111.416 641.83 112.076 641.17C112.736 640.51 113.066 639.62 113.066 638.5C113.066 637.38 112.736 636.49 112.076 635.83C111.416 635.17 110.556 634.84 109.496 634.84C108.436 634.84 107.576 635.17 106.916 635.83C106.256 636.49 105.926 637.38 105.926 638.5C105.926 639.62 106.256 640.51 106.916 641.17ZM121.618 638.5L120.718 631V625H126.118V631L125.218 638.5H121.618ZM125.428 645.58C124.868 646.14 124.198 646.42 123.418 646.42C122.638 646.42 121.968 646.14 121.408 645.58C120.848 645.02 120.568 644.35 120.568 643.57C120.568 642.79 120.848 642.12 121.408 641.56C121.968 641 122.638 640.72 123.418 640.72C124.198 640.72 124.868 641 125.428 641.56C125.988 642.12 126.268 642.79 126.268 643.57C126.268 644.35 125.988 645.02 125.428 645.58ZM123.238 225.707C115.89 218.916 106.204 215.52 94.1803 215.52H75.8103V197.818H124.24V172.1H49.0903V289H94.1803C106.204 289 115.89 285.66 123.238 278.98C130.586 272.189 134.26 263.282 134.26 252.26C134.26 241.238 130.586 232.387 123.238 225.707ZM107.54 252.26C107.54 260.053 103.087 263.95 94.1803 263.95H75.8103V240.57H94.1803C103.087 240.57 107.54 244.467 107.54 252.26ZM207.792 270.63L213.637 289H242.863L203.117 172.1H169.048L129.302 289H158.527L164.372 270.63H207.792ZM199.777 245.58H172.389L186.083 202.661L199.777 245.58ZM338 172.1H311.28V216.856H274.54V172.1H247.82V289H274.54V242.574H311.28V289H338V172.1ZM443.236 172.1H416.516V216.856H379.776V172.1H353.056V289H379.776V242.574H416.516V289H443.236V172.1ZM458.292 172.1V289H502.547C514.015 289 523.701 285.103 531.605 277.31C539.51 269.517 543.463 260.053 543.463 248.92C543.463 237.787 539.51 228.323 531.605 220.53C523.701 212.737 514.015 208.84 502.547 208.84H485.012V172.1H458.292ZM553.482 172.1V289H580.203V172.1H553.482ZM502.547 263.95H485.012V233.89H502.547C506.667 233.89 510.062 235.337 512.734 238.232C515.406 241.127 516.742 244.689 516.742 248.92C516.742 253.151 515.406 256.713 512.734 259.608C510.062 262.503 506.667 263.95 502.547 263.95ZM616.042 140.537V162.247H666.142V140.537H616.042ZM660.297 225.54V289H687.017V172.1H666.977L621.887 235.56V172.1H595.167V289H615.207L660.297 225.54ZM96.3463 412H119.824L88.0903 365.689L118.534 321.7H95.0563L67.4503 360.916V321.7H46.8103V412H67.4503V370.204L96.3463 412ZM159.093 413.806C172.165 413.806 183.259 409.291 192.375 400.261C201.491 391.231 206.049 380.094 206.049 366.85C206.049 353.606 201.491 342.469 192.375 333.439C183.259 324.409 172.165 319.894 159.093 319.894C146.021 319.894 134.927 324.409 125.811 333.439C116.695 342.469 112.137 353.606 112.137 366.85C112.137 380.094 116.695 391.231 125.811 400.261C134.927 409.291 146.021 413.806 159.093 413.806ZM159.093 393.682C151.611 393.682 145.333 391.188 140.259 386.2C135.271 381.212 132.777 374.762 132.777 366.85C132.777 358.938 135.271 352.488 140.259 347.5C145.333 342.512 151.611 340.018 159.093 340.018C166.575 340.018 172.81 342.512 177.798 347.5C182.872 352.488 185.409 358.938 185.409 366.85C185.409 374.762 182.872 381.212 177.798 386.2C172.81 391.188 166.575 393.682 159.093 393.682ZM304.1 412V321.7H283.46L258.95 361.819L234.44 321.7H213.8V412H234.44V359.497L257.789 397.81H260.111L283.46 359.497V412H304.1ZM384.12 412V321.7H315.75V412H336.39V341.566H363.48V412H384.12ZM389.331 392.65V412C393.888 412.516 398.103 412.344 401.973 411.484C405.928 410.624 409.669 408.99 413.195 406.582C416.807 404.088 419.646 400.175 421.71 394.843C423.859 389.511 424.935 383.018 424.935 375.364V341.566H446.09V412H466.73V321.7H404.294V376.138C404.294 383.276 403.047 388.006 400.553 390.328C398.06 392.65 394.319 393.424 389.331 392.65ZM535.09 392.134H498.97V376.138H531.22V356.53H498.97V341.566H534.445V321.7H478.33V412H535.09V392.134ZM592.402 412H615.88L584.146 365.689L614.59 321.7H591.112L563.506 360.916V321.7H542.866V412H563.506V370.204L592.402 412ZM621.479 400.39C630.423 409.334 641.646 413.806 655.148 413.806C663.318 413.806 670.843 411.957 677.723 408.259C684.603 404.475 689.978 399.358 693.848 392.908L676.046 382.588C674.154 386.028 671.316 388.737 667.532 390.715C663.834 392.693 659.706 393.682 655.148 393.682C647.15 393.682 640.743 391.231 635.927 386.329C631.197 381.427 628.832 374.934 628.832 366.85C628.832 358.766 631.197 352.273 635.927 347.371C640.743 342.469 647.15 340.018 655.148 340.018C659.706 340.018 663.834 341.007 667.532 342.985C671.23 344.877 674.068 347.586 676.046 351.112L693.848 340.792C689.892 334.342 684.474 329.268 677.594 325.57C670.714 321.786 663.232 319.894 655.148 319.894C641.646 319.894 630.423 324.409 621.479 333.439C612.621 342.383 608.192 353.52 608.192 366.85C608.192 380.18 612.621 391.36 621.479 400.39ZM139.39 538V445.6H118.27L93.1903 486.652L68.1103 445.6H46.9903V538H68.1103V484.276L92.0023 523.48H94.3783L118.27 484.276V538H139.39ZM209.392 517.672H172.432V501.304H205.432V481.24H172.432V465.928H208.732V445.6H151.312V538H209.392V517.672ZM210.748 518.2V538C215.412 538.528 219.724 538.352 223.684 537.472C227.732 536.592 231.56 534.92 235.168 532.456C238.864 529.904 241.768 525.9 243.88 520.444C246.08 514.988 247.18 508.344 247.18 500.512V465.928H268.828V538H289.948V445.6H226.06V501.304C226.06 508.608 224.784 513.448 222.232 515.824C219.68 518.2 215.852 518.992 210.748 518.2ZM359.765 483.88C353.517 477.72 345.861 474.64 336.797 474.64H322.937V445.6H301.817V538H336.797C345.861 538 353.517 534.92 359.765 528.76C366.013 522.6 369.137 515.12 369.137 506.32C369.137 497.52 366.013 490.04 359.765 483.88ZM344.849 514.768C342.737 517.056 340.053 518.2 336.797 518.2H322.937V494.44H336.797C340.053 494.44 342.737 495.584 344.849 497.872C346.961 500.16 348.017 502.976 348.017 506.32C348.017 509.664 346.961 512.48 344.849 514.768ZM446.997 445.6H425.877V480.976H396.837V445.6H375.717V538H396.837V501.304H425.877V538H446.997V445.6ZM510.377 487.84V538H531.497V445.6H515.657L480.017 495.76V445.6H458.897V538H474.737L510.377 487.84ZM623.227 517.672H613.327V445.6H592.207V517.672H564.487V445.6H543.367V538H602.107V555.688H623.227V517.672ZM685.308 523.48L689.928 538H713.028L681.612 445.6H654.684L623.268 538H646.368L650.988 523.48H685.308ZM668.148 469.756L678.972 503.68H657.324L668.148 469.756Z" fill="white" fill-opacity="0.3"/>
</g>
<defs>
<filter id="filter0_b_917_2" x="-31" y="-31" width="791" height="867" filterUnits="userSpaceOnUse" color-interpolation-filters="sRGB">
<feFlood flood-opacity="0" result="BackgroundImageFix"/>
<feGaussianBlur in="BackgroundImage" stdDeviation="15.5"/>
<feComposite in2="SourceAlpha" operator="in" result="effect1_backgroundBlur_917_2"/>
<feBlend mode="normal" in="SourceGraphic" in2="effect1_backgroundBlur_917_2" result="shape"/>
</filter>
</defs>
</svg>
